PathFileType	3	(X/Y/Z)	D:\Jess\PFP\Labelled\PA23\20251014\SRRun01.trc
DataRate	CameraRate	NumFrames	NumMarkers	Units	OrigDataRate	OrigDataStartFrame	OrigNumFrames
250.0	250.0	5	37	mm	250.0	37188	2501
Frame#	Time	C7			T10			CLAV			LSHO			RSHO			LASIS			RASIS			LPSIS			RPSIS			LILCR			RILCR			LGTR			LTHI			LLTHI			LLEP			LMEP			LPSH			LLSH			LDSH			LLMAL			LMMAL			LTOE			L5TH			LHEE			RGTR			RTHI			RLTHI			RLEP			RMEP			RPSH			RLSH			RDSH			RLMAL			RMMAL			RTOE			R5TH			RHEE			
		X1	Y1	Z1	X2	Y2	Z2	X3	Y3	Z3	X4	Y4	Z4	X5	Y5	Z5	X6	Y6	Z6	X7	Y7	Z7	X8	Y8	Z8	X9	Y9	Z9	X10	Y10	Z10	X11	Y11	Z11	X12	Y12	Z12	X13	Y13	Z13	X14	Y14	Z14	X15	Y15	Z15	X16	Y16	Z16	X17	Y17	Z17	X18	Y18	Z18	X19	Y19	Z19	X20	Y20	Z20	X21	Y21	Z21	X22	Y22	Z22	X23	Y23	Z23	X24	Y24	Z24	X25	Y25	Z25	X26	Y26	Z26	X27	Y27	Z27	X28	Y28	Z28	X29	Y29	Z29	X30	Y30	Z30	X31	Y31	Z31	X32	Y32	Z32	X33	Y33	Z33	X34	Y34	Z34	X35	Y35	Z35	X36	Y36	Z36	X37	Y37	Z37	

2189	148.748	844.3475775989658	1641.271727769195	-884.2494141400277	849.005504843892	1385.548578311548	-814.4948239531745	822.4160269184139	1524.184172605708	-1050.300624458831	649.8005255436757	1603.438613641908	-933.9046190054904	1001.216242908677	1606.524641902168	-962.7866527719383	695.0664107727464	1124.433499493027	-995.9250236996247	954.8466172285118	1087.312631675589	-1025.048497607846	818.8455597971831	1135.457010304381	-824.2555868402035	871.1626570647285	1125.388555577291	-829.1631927081938	676.1013772388928	1198.64287310999	-923.1453521127842	996.7707708810619	1172.589255558727	-958.5742876540464	644.8315584483348	977.3692819761485	-945.2602242725529	735.1955636442494	848.9983627312164	-1104.85293211441	717.0785247163235	697.8665186248463	-1066.257157442936	752.516076116284	568.117775712887	-1098.486395024942	nan	nan	nan	822.4654584869955	457.52071876566	-1128.365666173511	758.1824377419406	358.7027363266429	-1035.844555318794	841.4293345958987	232.3406507799855	-1035.738644115385	806.7615546122415	114.9787529319589	-945.4563339365083	nan	nan	nan	811.4741744684256	69.58218754449396	-1107.257901599285	766.4976476088714	53.92906758126332	-1056.610618788261	861.9576715462249	85.27865909275368	-861.0347023679759	1011.681734702693	933.2253799824678	-938.9784513305893	951.6940891916249	767.413976245587	-1044.562366148587	1008.019002786014	663.8919268512825	-929.8336781147245	1003.854766994599	527.9171932171013	-917.2562093530037	nan	nan	nan	974.9959061625881	437.4053819790619	-835.2084283847381	1033.272473551957	520.4535946123248	-693.2295899116332	994.5721402783264	443.5529099017045	-590.0961957681566	1033.349985839252	492.2953864526533	-456.2992136753144	nan	nan	nan	1062.890077321999	328.5856740851921	-393.7858897427912	1095.813090645858	386.7168169818619	-368.2821525487062	963.1500754865001	561.1084251870166	-409.915061695732	
2190	148.752	843.7125852370938	1639.433489865117	-884.5036869827873	848.6551493364994	1383.829852747276	-813.760516816793	822.6460009678692	1521.199203387601	-1050.278181720008	648.9964103745882	1600.638054124837	-934.7492707380429	1001.250095640631	1603.862779911413	-962.2343930336403	694.662326837385	1121.553852374909	-994.024720863388	954.5821400136192	1083.997739154778	-1023.967236435965	819.6894068714477	1133.154712603122	-822.9897796090064	871.8492634771537	1122.742202315559	-827.9096034776794	675.9043401025652	1195.423135794039	-920.8828524247933	997.2227751612539	1169.163055571268	-956.913616418073	644.7278791890039	975.4340494427677	-943.0779709924792	734.5913622702811	845.9584540251526	-1102.680151128095	717.0145366049263	695.1720075655162	-1063.218252514308	752.6621573260386	565.9046706001276	-1095.072557172315	nan	nan	nan	822.5262563521662	455.0246838258872	-1123.358749918084	758.1936576881069	357.5397800987371	-1029.225621573691	841.5690712443877	231.2619338821285	-1026.475358761722	806.7766814451261	115.3301476208353	-934.0341437862156	nan	nan	nan	811.4173115428295	69.43153463383449	-1095.387713845712	766.3445576606288	54.0917392863421	-1044.711844066941	861.8151791704778	85.70908298720168	-849.2808248492114	1011.872805137065	929.968593531719	-939.147776586915	952.999221854524	766.3342862639338	-1047.566052580899	1009.415049557379	661.7090493464368	-934.5214307509298	1005.462747917604	525.7661025524508	-924.5629644830498	nan	nan	nan	976.2433062481689	435.7961364254662	-842.9263169706747	1033.422452827785	519.875700265969	-700.9927258931849	994.5699944787866	443.2872987165599	-597.868866334613	1032.148717021734	493.3093807630901	-464.2045200373813	nan	nan	nan	1064.109394773295	329.7662292518419	-402.6072755447661	1096.519803851811	388.3259735316863	-377.3877768062895	961.0358989990477	560.9402245613413	-417.1666415304366	
2191	148.756	843.0748300058716	1637.796684796535	-884.7355748476986	848.2897922223656	1382.353541861699	-813.0337581099883	822.8950250146394	1518.523078147797	-1050.23893603141	648.2863506049324	1598.106798651611	-935.637334533321	1001.237920943751	1601.506915066269	-961.6539536653377	694.3489575998857	1118.945867286339	-992.1956490378274	954.3952004765816	1081.105347407578	-1022.858171480958	820.4742032798774	1131.226856436586	-821.7565830351399	872.4926152478604	1120.52529980777	-826.686481445349	675.7910315134168	1192.60217162485	-918.6056002736849	997.6670502089538	1166.242278132723	-955.2246381631904	644.6975450526572	973.6865486771559	-940.9079160004726	734.163297093829	842.9264411353986	-1100.267996967916	716.8772635007221	692.4752665484491	-1059.822647045293	752.64512544732	563.4952139676755	-1091.014608627682	nan	nan	nan	822.3274393318366	452.3314491151446	-1117.836716963412	758.1049666531269	356.1700942383265	-1022.128859790311	841.5770211176125	230.1182930172947	-1016.961668185549	806.7256493342819	115.5962482194953	-922.5139634024272	nan	nan	nan	811.2845114720631	69.29990872677	-1083.460940550014	766.1529273997445	54.18268669975311	-1032.776170743381	861.6451850326739	86.06632662871745	-837.4789101635585	1012.154427203366	927.1540308569935	-939.1774657188598	954.1023585978321	765.5937727088245	-1050.573775650692	1010.817242295685	659.9240302314947	-939.3520835291268	1006.963404864925	523.9792493853572	-932.0138697188198	nan	nan	nan	977.3600193852509	434.4255323622693	-850.8041928353219	1033.512967811302	519.333317704209	-708.8722732353044	994.4584805300278	442.9341389355708	-605.7995951494438	1030.919423296757	493.9911487225698	-472.2152800006422	nan	nan	nan	1064.945440562044	330.4936839128018	-411.7295889016741	1096.96332443924	389.3534489170401	-386.7070175347635	959.0852713384253	560.4969381401954	-424.4315146740124	
2192	148.76	842.4303775286658	1636.366810285114	-884.9430654072057	847.9062591952618	1381.116295695982	-812.3234025381903	823.1679271140162	1516.160664923235	-1050.185043628034	647.6690402394339	1595.854399580283	-936.5757396884186	1001.180999153084	1599.467595575628	-961.0351180114199	694.1269933300122	1116.620975422011	-990.4557767917839	954.2909047629114	1078.656244865853	-1021.728568485267	821.1820617236355	1129.662938991285	-820.5595572310538	873.0774558140175	1118.730104283202	-825.4960827186657	675.7611041373412	1190.198464083239	-916.3416635116832	998.0973633182238	1163.845546598958	-953.530847491286	644.7405351662704	972.1186241167485	-938.7582811939114	733.8974189133969	839.9179674824824	-1097.621558578012	716.6698217955253	689.7934335562563	-1056.083086087448	752.4769480608728	560.893899922723	-1086.328306125433	nan	nan	nan	821.8947706319245	449.4462971976931	-1111.810902679182	757.9362494329997	354.6018336997263	-1014.575111786764	841.4739778623841	228.9092349999179	-1007.211272313327	806.6213650507375	115.7775342327934	-910.900130163276	nan	nan	nan	811.0895762929611	69.16527194966187	-1071.48365040303	765.9291251725409	54.19700571854524	-1020.800814956108	861.457897800164	86.35625214893274	-825.6275667279509	1012.517502485687	924.7873184020501	-939.050775828574	955.0124652778095	765.1951270303122	-1053.576267553954	1012.207194052678	658.5335496062938	-944.3062524078155	1008.348320808656	522.5663406109871	-939.5940477495097	nan	nan	nan	978.3404887600341	433.3045157218976	-858.8308320796165	1033.54872125982	518.8281259957196	-716.8521112445015	994.2400196310026	442.4940991572843	-613.8706472726835	1029.677036728034	494.3355950872073	-480.3055521373848	nan	nan	nan	1065.406290432105	330.7554453313815	-421.1182282361119	1097.1503013509	389.7902366770593	-396.1973548197929	957.3035675192532	559.7807466709162	-431.6980076305944	
2193	148.764	841.7761318888254	1635.149786721209	-885.1258362661476	847.501941731664	1380.114729206319	-811.6382426330766	823.4695503420654	1514.114622861089	-1050.119472020063	647.1411130981336	1593.889213389554	-937.5708463475333	1001.082677467781	1597.752326517747	-960.3685937158189	693.9947494405098	1114.586672127555	-988.8202996903181	954.2718718591242	1076.662997135264	-1020.585927987347	821.7984802368336	1128.44922695967	-819.4020477827615	873.5910066154245	1117.343729134004	-824.3402314834469	675.8119537000053	1188.222397293344	-914.1207293291313	998.5081907529219	1161.979881116647	-951.8561000454448	644.8548508011639	970.7223352467645	-936.6334354180314	733.7734051151663	836.9478903167775	-1094.748018864663	716.3976519782052	687.1458012527193	-1052.013085907184	752.1731097715577	558.1172055808828	-1081.038507971085	nan	nan	nan	821.2597739485185	446.3870696897803	-1105.29856892055	757.7069690213365	352.854424782203	-1006.590632366838	841.280929122984	227.641134997189	-997.2394363037371	806.4765727928989	115.8792416325845	-899.1982174615918	nan	nan	nan	810.846092171671	69.01153673739988	-1059.461541257682	765.6798349637594	54.13533102234496	-1008.784094929237	861.2626736073084	86.58693301990702	-813.7267526416085	1012.951391005459	922.867296602749	-938.7558409999755	955.7441240424084	765.1426166784153	-1056.563589292364	1013.565245986059	657.5322284692343	-949.3624896085348	1009.610497228366	521.535882604437	-947.2854019866066	nan	nan	nan	979.1800136976615	432.4443500402549	-866.9940603932042	1033.534793610187	518.36156868936	-724.9149235252266	993.9177783126116	441.9686506681101	-622.0647384210682	1028.434784374751	494.3381967331874	-488.4506033500938	nan	nan	nan	1065.50316620656	330.5430413739749	-430.7404152020248	1097.088148854175	389.6318217913657	-405.8187099640728	955.6925105043119	558.7921557508454	-438.9550433162159	
